<svg width="16" height="16" viewBox="0 0 16 16" fill="none" xmlns="http://www.w3.org/2000/svg">
<path fill-rule="evenodd" clip-rule="evenodd" d="M2 5C2 3.89542 2.89542 3 4 3H12C13.1046 3 14 3.89542 14 5V10C14 11.1046 13.1046 12 12 12H7.29999L4.89182 14.4629C4.56595 14.7962 4 14.5655 4 14.0994V12C2.89542 12 2 11.1046 2 10V5ZM4.5 9C4.5 8.72385 4.72385 8.5 5 8.5H11C11.2762 8.5 11.5 8.72385 11.5 9C11.5 9.27615 11.2762 9.5 11 9.5H5C4.72385 9.5 4.5 9.27615 4.5 9ZM5 5.5C4.72385 5.5 4.5 5.72385 4.5 6C4.5 6.27615 4.72385 6.5 5 6.5H11C11.2762 6.5 11.5 6.27615 11.5 6C11.5 5.72385 11.2762 5.5 11 5.5H5Z" fill="#C4C4C4"/>
</svg>
