<svg width="16" height="16" viewBox="0 0 16 16" fill="none" xmlns="http://www.w3.org/2000/svg">
<path fill-rule="evenodd" clip-rule="evenodd" d="M15 8.5C15 9.71429 11.866 12.5 8 12.5C4.134 12.5 1 9.57144 1 8.5C1 7.42856 4.134 4.5 8 4.5C11.866 4.5 15 7.28571 15 8.5ZM11 8.5C11 10.1569 9.65686 11.5 8 11.5C6.34314 11.5 5 10.1569 5 8.5C5 6.84314 6.34314 5.5 8 5.5C9.65686 5.5 11 6.84314 11 8.5ZM10 8.5C10 9.60458 9.10458 10.5 8 10.5C6.89542 10.5 6 9.60458 6 8.5C6 7.39542 6.89542 6.5 8 6.5C8.20499 6.5 8.40277 6.53085 8.58896 6.58813C8.2417 6.74493 8 7.09424 8 7.5C8 8.05228 8.44772 8.5 9 8.5C9.40576 8.5 9.75507 8.2583 9.91187 7.91104C9.96915 8.09723 10 8.29501 10 8.5Z" fill="#C4C4C4"/>
<path fill-rule="evenodd" clip-rule="evenodd" d="M15 8.5C15 9.71429 11.866 12.5 8 12.5C4.134 12.5 1 9.57144 1 8.5C1 7.42856 4.134 4.5 8 4.5C11.866 4.5 15 7.28571 15 8.5ZM11 8.5C11 10.1569 9.65686 11.5 8 11.5C6.34314 11.5 5 10.1569 5 8.5C5 6.84314 6.34314 5.5 8 5.5C9.65686 5.5 11 6.84314 11 8.5ZM10 8.5C10 9.60458 9.10458 10.5 8 10.5C6.89542 10.5 6 9.60458 6 8.5C6 7.39542 6.89542 6.5 8 6.5C8.20499 6.5 8.40277 6.53085 8.58896 6.58813C8.2417 6.74493 8 7.09424 8 7.5C8 8.05228 8.44772 8.5 9 8.5C9.40576 8.5 9.75507 8.2583 9.91187 7.91104C9.96915 8.09723 10 8.29501 10 8.5Z" fill="#C4C4C4"/>
<path fill-rule="evenodd" clip-rule="evenodd" d="M15 8.5C15 9.71429 11.866 12.5 8 12.5C4.134 12.5 1 9.57144 1 8.5C1 7.42856 4.134 4.5 8 4.5C11.866 4.5 15 7.28571 15 8.5ZM11 8.5C11 10.1569 9.65686 11.5 8 11.5C6.34314 11.5 5 10.1569 5 8.5C5 6.84314 6.34314 5.5 8 5.5C9.65686 5.5 11 6.84314 11 8.5ZM10 8.5C10 9.60458 9.10458 10.5 8 10.5C6.89542 10.5 6 9.60458 6 8.5C6 7.39542 6.89542 6.5 8 6.5C8.20499 6.5 8.40277 6.53085 8.58896 6.58813C8.2417 6.74493 8 7.09424 8 7.5C8 8.05228 8.44772 8.5 9 8.5C9.40576 8.5 9.75507 8.2583 9.91187 7.91104C9.96915 8.09723 10 8.29501 10 8.5Z" fill="#C4C4C4"/>
</svg>
