<svg width="24" height="24" viewBox="0 0 24 24" fill="none" xmlns="http://www.w3.org/2000/svg">
<path d="M15.6611 4.00354L13.5024 4C11.0772 4 9.5099 5.64211 9.5099 8.18372V10.1127H7.33943C7.15188 10.1127 7 10.268 7 10.4595V13.2544C7 13.4459 7.15205 13.601 7.33943 13.601H9.5099V20.6534C9.5099 20.8449 9.66178 21 9.84933 21H12.6812C12.8687 21 13.0206 20.8447 13.0206 20.6534V13.601H15.5584C15.7459 13.601 15.8978 13.4459 15.8978 13.2544L15.8989 10.4595C15.8989 10.3675 15.863 10.2795 15.7995 10.2144C15.7359 10.1493 15.6493 10.1127 15.5593 10.1127H13.0206V8.47748C13.0206 7.69153 13.204 7.29254 14.2065 7.29254L15.6607 7.29201C15.8481 7.29201 16 7.13673 16 6.94537V4.35018C16 4.15899 15.8483 4.00389 15.6611 4.00354Z" fill="#3B5998"/>
</svg>
