<svg width="24" height="24" viewBox="0 0 24 24" fill="none" xmlns="http://www.w3.org/2000/svg">
<path d="M15.2335 4H8.76649C6.13823 4 4 6.13823 4 8.76649V15.2335C4 17.8618 6.13823 20 8.76649 20H15.2335C17.8618 20 20 17.8618 20 15.2335V8.76649C20 6.13823 17.8617 4 15.2335 4ZM18.3904 15.2335C18.3904 16.977 16.977 18.3904 15.2335 18.3904H8.76649C7.023 18.3904 5.6096 16.977 5.6096 15.2335V8.76649C5.6096 7.02297 7.023 5.6096 8.76649 5.6096H15.2335C16.977 5.6096 18.3904 7.02297 18.3904 8.76649V15.2335Z" fill="url(#paint0_linear)"/>
<path d="M12 7.86185C9.7182 7.86185 7.86182 9.71823 7.86182 12C7.86182 14.2817 9.7182 16.1382 12 16.1382C14.2818 16.1382 16.1382 14.2818 16.1382 12C16.1382 9.7182 14.2818 7.86185 12 7.86185ZM12 14.5286C10.6035 14.5286 9.47142 13.3965 9.47142 12C9.47142 10.6035 10.6035 9.47145 12 9.47145C13.3965 9.47145 14.5286 10.6035 14.5286 12C14.5286 13.3965 13.3965 14.5286 12 14.5286Z" fill="url(#paint1_linear)"/>
<path d="M16.1461 8.88449C16.6938 8.88449 17.1377 8.44054 17.1377 7.8929C17.1377 7.34526 16.6938 6.90131 16.1461 6.90131C15.5985 6.90131 15.1545 7.34526 15.1545 7.8929C15.1545 8.44054 15.5985 8.88449 16.1461 8.88449Z" fill="url(#paint2_linear)"/>
<defs>
<linearGradient id="paint0_linear" x1="12" y1="19.9534" x2="12" y2="4.12427" gradientUnits="userSpaceOnUse">
<stop stop-color="#E09B3D"/>
<stop offset="0.3" stop-color="#C74C4D"/>
<stop offset="0.6" stop-color="#C21975"/>
<stop offset="1" stop-color="#7024C4"/>
</linearGradient>
<linearGradient id="paint1_linear" x1="12" y1="19.9534" x2="12" y2="4.12429" gradientUnits="userSpaceOnUse">
<stop stop-color="#E09B3D"/>
<stop offset="0.3" stop-color="#C74C4D"/>
<stop offset="0.6" stop-color="#C21975"/>
<stop offset="1" stop-color="#7024C4"/>
</linearGradient>
<linearGradient id="paint2_linear" x1="16.1461" y1="19.9534" x2="16.1461" y2="4.12427" gradientUnits="userSpaceOnUse">
<stop stop-color="#E09B3D"/>
<stop offset="0.3" stop-color="#C74C4D"/>
<stop offset="0.6" stop-color="#C21975"/>
<stop offset="1" stop-color="#7024C4"/>
</linearGradient>
</defs>
</svg>
