<svg width="24" height="24" viewBox="0 0 24 24" fill="none" xmlns="http://www.w3.org/2000/svg">
<path d="M11.9999 12.7251C14.6324 12.7251 16.7665 10.591 16.7665 7.95851C16.7665 5.326 14.6324 3.19199 11.9999 3.19199C9.36742 3.19199 7.2334 5.32604 7.2334 7.95855C7.23663 10.5897 9.36879 12.7218 11.9999 12.7251ZM11.9999 5.39193C13.4174 5.39193 14.5665 6.54103 14.5665 7.95855C14.5665 9.37607 13.4174 10.5252 11.9999 10.5252C10.5824 10.5252 9.43331 9.37607 9.43331 7.95855C9.43331 6.54103 10.5824 5.39193 11.9999 5.39193Z" fill="#FF9800"/>
<path d="M16.669 14.9837C17.187 14.6425 17.4991 14.064 17.4998 13.4437C17.5071 12.9289 17.2166 12.4562 16.7541 12.2301C16.2789 11.9927 15.71 12.0462 15.2874 12.368C13.3287 13.796 10.672 13.796 8.71325 12.368C8.28997 12.0479 7.72214 11.9945 7.24661 12.2301C6.78431 12.4562 6.49368 12.9284 6.5001 13.443C6.5012 14.0632 6.81322 14.6415 7.33096 14.9829C7.99521 15.4247 8.71858 15.7703 9.47959 16.0096C9.60866 16.0497 9.74186 16.0868 9.87926 16.1211L7.66319 18.288C7.08185 18.8521 7.06779 19.7805 7.63184 20.3619C8.19589 20.9432 9.12437 20.9573 9.70574 20.3933C9.71784 20.3815 9.72973 20.3696 9.74142 20.3574L12 18.0196L14.2631 20.3618C14.8266 20.9436 15.7551 20.9584 16.3369 20.3948C16.9187 19.8312 16.9335 18.9027 16.3699 18.3209C16.3581 18.3088 16.3461 18.2968 16.3339 18.2851L14.1215 16.1203C14.2589 16.0851 14.3926 16.0477 14.5226 16.0081C15.2828 15.7698 16.0055 15.4249 16.669 14.9837Z" fill="#FF9800"/>
</svg>
