<svg width="32" height="32" viewBox="0 0 32 32" fill="none" xmlns="http://www.w3.org/2000/svg">
<path d="M7 3H19.7575L22.5322 5.7277L25 8.24208V26H7V3Z" stroke="#02781D" stroke-width="2"/>
<path d="M19 2V7C19 8.10457 19.8954 9 21 9H26" stroke="#02781D" stroke-width="2"/>
<rect x="3" y="13" width="18" height="10" fill="#02781D"/>
<path d="M6.80078 19.0703V21H5.42969V15.3125H7.69922C8.13411 15.3125 8.51823 15.3932 8.85156 15.5547C9.1875 15.7135 9.44661 15.9414 9.62891 16.2383C9.8138 16.5326 9.90625 16.8672 9.90625 17.2422C9.90625 17.7969 9.70703 18.2409 9.30859 18.5742C8.91276 18.9049 8.36849 19.0703 7.67578 19.0703H6.80078ZM6.80078 18.0117H7.69922C7.96484 18.0117 8.16667 17.9453 8.30469 17.8125C8.44531 17.6797 8.51562 17.4922 8.51562 17.25C8.51562 16.9844 8.44401 16.7721 8.30078 16.6133C8.15755 16.4544 7.96224 16.3737 7.71484 16.3711H6.80078V18.0117ZM10.4806 21V15.3125H12.3127C12.8153 15.3125 13.2671 15.4271 13.6681 15.6562C14.0692 15.8828 14.3817 16.2044 14.6056 16.6211C14.8322 17.0352 14.9468 17.5 14.9494 18.0156V18.2773C14.9494 18.7982 14.8387 19.2656 14.6173 19.6797C14.3986 20.0911 14.0887 20.4141 13.6877 20.6484C13.2892 20.8802 12.8439 20.9974 12.3517 21H10.4806ZM11.8517 16.3711V19.9453H12.3283C12.7215 19.9453 13.0236 19.806 13.2345 19.5273C13.4455 19.2461 13.5509 18.8294 13.5509 18.2773V18.0312C13.5509 17.4818 13.4455 17.0677 13.2345 16.7891C13.0236 16.5104 12.7163 16.3711 12.3127 16.3711H11.8517ZM19.0745 18.7344H16.8636V21H15.4925V15.3125H19.2972V16.3711H16.8636V17.6797H19.0745V18.7344Z" fill="white"/>
</svg>
