<svg width="18" height="15" viewBox="0 0 18 15" fill="none" xmlns="http://www.w3.org/2000/svg">
<path d="M9 5.4C7.5087 5.4 6.3 6.60924 6.3 8.1C6.3 9.5913 7.5087 10.8 9 10.8C10.4909 10.8 11.7 9.5913 11.7 8.1C11.7 6.60924 10.4909 5.4 9 5.4ZM16.2 2.7H14.04C13.743 2.7 13.423 2.4696 13.3292 2.18772L12.7708 0.5121C12.6767 0.2304 12.357 0 12.06 0H5.94C5.643 0 5.32296 0.2304 5.22918 0.51228L4.67082 2.1879C4.57668 2.4696 4.257 2.7 3.96 2.7H1.8C0.81 2.7 0 3.51 0 4.5V12.6C0 13.59 0.81 14.4 1.8 14.4H16.2C17.19 14.4 18 13.59 18 12.6V4.5C18 3.51 17.19 2.7 16.2 2.7ZM9 12.6C6.51474 12.6 4.5 10.5853 4.5 8.1C4.5 5.61492 6.51474 3.6 9 3.6C11.4849 3.6 13.5 5.61492 13.5 8.1C13.5 10.5853 11.4849 12.6 9 12.6ZM15.57 5.75874C15.2222 5.75874 14.94 5.47686 14.94 5.12874C14.94 4.78098 15.2222 4.49874 15.57 4.49874C15.9181 4.49874 16.2 4.78098 16.2 5.12874C16.2 5.47686 15.9179 5.75874 15.57 5.75874Z" fill="#02781D"/>
</svg>
