<svg width="24" height="24" viewBox="0 0 24 24" fill="none" xmlns="http://www.w3.org/2000/svg">
<path d="M21.8951 16.8311C21.8696 16.7774 21.8477 16.7314 21.8258 16.6931C21.4793 16.0378 20.8155 15.2293 19.8381 14.2751L19.8162 14.2521L19.8053 14.2406L19.7943 14.2291H19.7834C19.3385 13.7846 19.0576 13.4857 18.9409 13.3324C18.7257 13.0412 18.6783 12.7461 18.795 12.4472C18.8789 12.2211 19.1926 11.7421 19.7323 11.014C20.0168 10.627 20.2429 10.3166 20.4107 10.0828C21.6106 8.4044 22.1322 7.33142 21.9717 6.86775L21.9097 6.76045C21.8696 6.6953 21.7601 6.63399 21.5887 6.58034C21.4137 6.52669 21.1912 6.5152 20.9213 6.55352L17.9234 6.57651C17.876 6.55735 17.8067 6.56118 17.7155 6.58034C17.6243 6.60334 17.5805 6.61483 17.5805 6.61483L17.5295 6.64166L17.4894 6.67614C17.4529 6.69914 17.4164 6.73746 17.3763 6.79111C17.3362 6.84475 17.2997 6.9099 17.2742 6.98271C16.9459 7.86408 16.5776 8.68414 16.1582 9.44289C15.9029 9.89507 15.6658 10.2859 15.4506 10.6193C15.2354 10.9527 15.0567 11.1941 14.9108 11.3512C14.765 11.5084 14.6337 11.6348 14.5133 11.7268C14.3966 11.8226 14.3054 11.8609 14.2434 11.8456C14.1814 11.8303 14.1231 11.8149 14.0647 11.8034C13.9662 11.7383 13.8896 11.6501 13.8313 11.5352C13.7729 11.4202 13.7328 11.2784 13.7109 11.1098C13.689 10.9374 13.6781 10.7918 13.6745 10.6653C13.6708 10.5427 13.6745 10.3664 13.6781 10.1403C13.6854 9.91423 13.689 9.76095 13.689 9.68047C13.689 9.40456 13.6927 9.10183 13.7036 8.77611C13.7146 8.45038 13.7219 8.19364 13.7292 8.00587C13.7365 7.8181 13.7401 7.615 13.7401 7.40423C13.7401 7.19347 13.7292 7.02869 13.7036 6.90607C13.6781 6.78727 13.6416 6.66848 13.5942 6.55735C13.5468 6.44622 13.4739 6.35808 13.379 6.29294C13.2842 6.23163 13.1675 6.18181 13.0289 6.14349C12.6606 6.05535 12.1937 6.00937 11.6248 6.0017C10.3337 5.98637 9.50579 6.07451 9.13743 6.26611C8.99155 6.34659 8.86025 6.45389 8.74354 6.59567C8.61954 6.75662 8.6013 6.84475 8.69248 6.86008C9.10825 6.92523 9.40367 7.08234 9.57873 7.33142L9.64074 7.46171C9.68815 7.55752 9.73921 7.72613 9.78662 7.96371C9.83403 8.20513 9.86686 8.46954 9.88145 8.76078C9.91427 9.29344 9.91427 9.74945 9.88145 10.1288C9.84497 10.5082 9.81215 10.8033 9.78297 11.014C9.75015 11.2248 9.70638 11.3972 9.64074 11.5275C9.57873 11.6578 9.53497 11.7383 9.51673 11.7689C9.49485 11.7996 9.48026 11.8149 9.46567 11.8226C9.37449 11.8571 9.28332 11.8762 9.18484 11.8762C9.08637 11.8762 8.96966 11.8264 8.83107 11.723C8.69248 11.6195 8.5466 11.4815 8.40071 11.3014C8.25118 11.1213 8.08341 10.8722 7.89376 10.5503C7.70776 10.2285 7.51081 9.84908 7.31022 9.41223L7.14245 9.09417C7.03668 8.89107 6.89445 8.59217 6.71574 8.2013C6.53338 7.81043 6.37655 7.43489 6.23796 7.06701C6.18326 6.91373 6.09937 6.79877 5.98631 6.7183L5.93525 6.68381C5.90243 6.65315 5.84407 6.6225 5.76748 6.59184C5.69089 6.55735 5.61066 6.53436 5.52677 6.51903L2.67472 6.54202C2.38295 6.54202 2.186 6.611 2.08024 6.74895L2.04012 6.8141C2.01094 6.86391 2 6.9214 2 7.00187C2 7.08234 2.02188 7.18197 2.062 7.29694C2.47777 8.32776 2.93366 9.31643 3.42238 10.2744C3.9111 11.2325 4.33781 11.9989 4.69888 12.5813C5.05994 13.1638 5.4283 13.7156 5.80396 14.2329C6.17961 14.7503 6.42761 15.0837 6.54797 15.2293C6.66832 15.3749 6.7668 15.486 6.83609 15.5588L7.09504 15.8233C7.26281 15.9995 7.50716 16.2065 7.82811 16.4517C8.15271 16.697 8.51012 16.9384 8.90037 17.176C9.29426 17.4136 9.75015 17.6052 10.268 17.7546C10.7896 17.9041 11.2965 17.9654 11.7889 17.9347H12.9852C13.2295 17.9117 13.4119 17.8312 13.5359 17.6933L13.576 17.6396C13.6052 17.5975 13.6307 17.5285 13.6526 17.4365C13.6781 17.3446 13.689 17.2449 13.689 17.1338C13.6818 16.8196 13.7036 16.536 13.7583 16.2869C13.8094 16.034 13.8678 15.8462 13.9371 15.7198C14.0027 15.5933 14.0793 15.486 14.1595 15.3979C14.2434 15.3098 14.3018 15.2561 14.3382 15.2408C14.3711 15.2216 14.4002 15.2101 14.4221 15.2025C14.5899 15.145 14.7832 15.2025 15.0093 15.3711C15.2354 15.5435 15.447 15.7543 15.6439 16.0072C15.8409 16.2601 16.0779 16.5398 16.3587 16.8541C16.6359 17.1683 16.8803 17.4021 17.0882 17.5553L17.2961 17.6856C17.4346 17.7738 17.617 17.8542 17.8395 17.927C18.062 17.9999 18.2553 18.019 18.423 17.9807L21.0891 17.9385C21.3517 17.9385 21.5596 17.8926 21.7018 17.8006C21.8477 17.7086 21.9352 17.609 21.9607 17.4979C21.9899 17.3867 21.9899 17.2641 21.9644 17.1261C21.9425 16.9844 21.917 16.8886 21.8951 16.8311Z" fill="#4C75A3"/>
</svg>
